<svg xmlns="http://www.w3.org/2000/svg" xmlns:xlink="http://www.w3.org/1999/xlink" x="0px" y="0px" width="1000px" height="200px" viewBox="0 0 1000 200" style="enable-background:new 0 0 1000 200;" xml:space="preserve">
<style type="text/css">
	.st0{display:none;}
	.st1{display:inline;fill:none;stroke:#FFF200;stroke-miterlimit:10;}
	.st2{fill:#F1624C;}
</style>
<g id="BG">
</g>
<g id="Layer_1" class="st0">
</g>
<g id="Layer_2">
</g>
<g id="Layer_4" class="st0">
	
		<image style="display:inline;overflow:visible;" width="600" height="771" xlink:href="BF1A15AFC6EDEA3A.jpg" transform="matrix(0.2606 0 0 0.2606 -1164.7889 -1501.4142)">
	</image>
	<line class="st1" x1="-1086.6" y1="-1503.5" x2="-1086.6" y2="-1300.5"></line>
</g>
<g id="Layer_5" class="st0">
	
		<image style="display:inline;overflow:visible;" width="800" height="800" xlink:href="BF1A15AFC6EDEA3C.jpg" transform="matrix(0.2425 0 0 0.2425 -1183.1047 -1485.2255)">
	</image>
</g>
<g id="Layer_6" class="st0">
	
		<image style="display:inline;overflow:visible;" width="600" height="808" xlink:href="BF1A15AFC6EDEA33.jpg" transform="matrix(0.2458 0 0 0.2458 -1159.6906 -1481.9846)">
	</image>
</g>
<g id="Layer_3">
	<g>
		<path class="st2" d="M932.6,69.3c3.7-2.5,7.1-5.1,8.7-6.3c1-0.8,0.5-1.6-1-1.5c-3.3,0.2-6.9,1.1-11.1,2.2c-2.6,0.7-8.7,2.5-9,4.2    c-0.4,1.7,0.4,2.8,1.1,5.1s0.1,5.7-1.4,9C928,77.9,926.9,73,932.6,69.3z"></path>
		<path class="st2" d="M913,69.2c-4.3,0.4-9.3,0.6-17.5,3.3c-7.4,2.4-11.6,4.3-14.4,8.3c-3.5,4.8-5.3,12.6-6.1,16.6    c-0.6,3.2-1.6,10.3-1.9,11.7c0.2,4.5-1.3,8.4-4.6,10.2c-5.4,2.9-7.1,5.8-7.2,8c-0.1,2.1,1.3,4.1,2.9,5.1c2.4,1.7,3.4-0.6,3.4-0.6    s1.2,2.3,1.6,2.4c3.4,0.7,8,1.6,11.6-1.3c-3.4-3-5.3-4.9-5.3-4.9s3.5,1.3,6.2,3.6c0.9-0.5,4.6-5,5.1-6.2c-3-1.7-5.7-3.4-5.7-3.4    s3.8,0.7,7,1.9c0.7-0.6,3.5-6.6,3.7-7.6c-1.9-1-4.9-2.4-4.9-2.4s3.9,0.4,6,1c0.6-2.5,0.3-4.2,0-5.3c0.6-0.9-0.1-5,0.8-6.9    c4.2-9.2,6.9-7.8,11.1-11.1c1.9-1.5,3.5-7.6,3.5-7.6s0.5,0.1,0.7,0.8c0.2,0.7,0.5,1.8,0.5,1.8s4.1-6.9,4.5-10.3    C914.4,71.8,913,69.2,913,69.2z M888.6,93.1c-2.2,0.6-4.2,2.7-4.7,2.7c-0.4,0-0.5-1.9-1.1-3c-0.5-0.9-1.1-1.4-1.3-2.2    c-0.5-2.8-0.4-4.1,1-5.9c1.7-2.3,2.2-3.5,7-4.3c2.8-0.4,9.5-1.8,9.5-1.8s-0.7,2.7-2.8,4.8C893.4,86.5,892.5,92,888.6,93.1z"></path>
		<path class="st2" d="M890.8,88.8c-0.4-2.5,0-4.7-3.4-3.9c-1.9,0.4-3.4,1.8-3.4,3.9c0,2.2,1.5,3.9,3.4,3.9    C889.2,92.7,891.1,90.9,890.8,88.8z M886.7,90.1c-0.2,0-0.3-0.1-0.3-0.3c0-0.2,0.1-0.3,0.3-0.3s0.3,0.1,0.3,0.3    C887,90,886.8,90.1,886.7,90.1z M887.9,90.4c-0.2,0-0.3-0.2-0.3-0.5c0-0.3,0.2-0.5,0.3-0.5s0.3,0.2,0.3,0.5    C888.2,90.1,888.1,90.4,887.9,90.4z M887.4,89.5c-0.5,0-0.8-0.5-0.8-1c0-0.6,0.4-1,0.8-1c0.5,0,0.8,0.5,0.8,1    C888.2,89.1,887.9,89.5,887.4,89.5z"></path>
		<path class="st2" d="M861.4,121.5c0.8-0.3,2.5-1.7,2.3-2.4c-0.9-2.9,1.4-6.7,3.5-7.3c0.9-0.2,0.1,4.2-1.3,5.6    c-0.9,0.9-0.7,1.7-0.4,1.5c6-4,5.5-7.5,4.5-9.2c-0.9-1.5-2.8-1.8-5.5-2c-2.5-0.2-5.1-0.2-5.1-0.2v14.6    C859.5,121.9,860.2,121.9,861.4,121.5z"></path>
		<path class="st2" d="M937.4,68.1c0,0-4.7,2.5-7,6.7c-4.6,8.3-11.6,9.9-13.6,10.6c-0.2-1.8,3.1-7.6,2.4-11.7    c-0.7-3.6-2.9-3.8-1-7.2c1.1-2,5.9-3.7,10.3-4.8c1.1-0.2,3.2-0.7,3.9-0.9c2.7-0.6,4.7-0.6,5.9-2.4c1.5-2.3,0.8-3.4,0.8-3.4    s-2.1,2.1-5.4,0.3c-3.7-2.1-0.4-7.6-5.5-12.2c-3.7-3.4-9.7-2.7-9.7-2.7s1.2-2.1,4.7-2.5c2.9-0.3,5.8,0.2,9.3,4.4    c-1.2-7-4.8-11.4-9.3-13.4c-4.2-1.9-8.9-1.9-13.3-1.5c0,0,2.4-2.1,5.3-3c4-1.3,7.9-0.3,7.9-0.3s-8-5.7-16.2-5.3    c-8.7,0.5-16.7,2.5-16.7,2.5s2-2.2,4.9-3.4c4-1.6,10.6-1.7,10.6-1.7s-6.8-5.1-16.7-3.5c-6.1,0.9-9.6,2.5-9.6,2.5s0.1-2.1,1.9-3    c1.9-0.9,5.5-0.9,5.5-0.9s-2.2-1.9-12.5-3c-8.5-0.9-15-0.3-15-0.3v16.9l0,54.9v9.8l0,16.2c0,0,0.9,0,1.8,0c0.2,0,0.6-2.5,0.6-2.5    s0.6,1.1,0.4,2.5c1,0.1,1.8,0.1,2.9,0.1c1,0.1,1.6,0,2.7,0.2c0.6-0.9,1.3-10.2,1.3-10.2s1.1,4.6,0.2,10.6c0.9,0.3,1.5,1,1.5,1    s1.1-6.5,2.4-12.9c0.1-0.3,0.1-0.6,0.2-0.9c0,0,0-0.1,0-0.1c0.1-0.3,0.1-0.6,0.2-1c0,0,0-0.1,0-0.1c0.1-0.3,0.1-0.5,0.2-0.8    c0-0.1,0-0.1,0-0.2c0.1-0.3,0.1-0.6,0.2-0.8c0,0,0-0.1,0-0.1c0.3-1.3,0.6-2.6,0.9-3.7c1.6-6.3,5.1-10.6,10.4-13    c5.7-2.5,8.7-4,16.4-5.4c5.2-1,7.9-1.2,12.8-1.3c2.7,6.8,1.3,13.4-3.2,20.1c-1.9,2.9-2.5,5.6-4.9,8.3c-0.5,0.5-4.9,1.8-5.8,2.6    c-0.9,0.8-5.6,12.1-5.2,15.8c-0.1,0.5-0.3,1-0.4,1.6c1.2,0.3,3.6,1,6,1.9c5.8,1.9,11.3,4.7,11.1,4.8c0,0-6.8-1.9-10.8-3.1    c-3.1-1-5.5-1.5-6.9-1.7c-0.8,2.5-1.8,5.2-3.1,7.8c0.6,0.2,1.3,0.5,2.2,0.9c3.9,1.7,9.5,5.5,9.5,5.5s-4.6-1.8-10-3.7    c-1.1-0.4-1.9-0.7-2.7-0.9c-0.7,1.1-1.4,2.1-2.2,3c-0.8,0.9-1.9,2.3-3.5,3.9c0.5,0.3,0.9,0.6,1.2,0.8c1.3,1,5.1,4.7,5.1,4.7    s-3.9-2.2-5.4-3.1c-0.7-0.5-1.5-0.9-2.1-1.3c-1.7,1.5-3.9,3-6.7,4.3c-3.6,1.6-6.1-1.1-9.4-2.3c-3.4-1.3-6-2.3-6-2.3l-2.1-0.2v6.8    c0,0,0,0,0,0c1.1,0,2.2,0,3.3,0c1.1-0.1,2.2-0.1,3.3-0.4c-0.4,0.5-0.9,0.8-1.4,1.1c-0.5,0.3-1.1,0.5-1.7,0.6    c-1.2,0.3-2.3,0.4-3.5,0.4c0,0,0,0,0,0v21c0,0,3.3-2.3,8-15.1c0.7,3.2-0.7,9.5-0.7,9.5s6.6-5.6,7.2-11.5c1.2,2.2,0.4,4,0,7.2    c5.2-3.4,10.4-10.1,13.6-14.7c-0.4,2.1-0.6,4.4-0.9,7c1.5-2.7,4.6-5,6.8-6c2.4-1.1,4.3-5.9,4.2-6.7c0.6,0.8,0.2,4.8,0.2,4.8    s7.1-3,10.2-6.1c2.8-2.8,4.5-4,5.8-6.7c1.5-3.1,0.8-8.1-0.2-10.3c0,0,2.1,1.7,2.7,4.7c0.7,3.9,0.4,6.1,0.4,6.1s14-9.4,12.3-27.3    c-0.2-2.4-1.8-7.9-1.8-7.9s2,1.7,2.8,4.4c1,3.2,0.9,5.7,0.9,5.7s3.9-6.4,4.4-12.7c0.9-10,0.1-13.3,0.1-13.3s0.6,0.6,1,1.8    c0.4,1.1,0.6,3,0.6,3s1.9-4.3,1.5-8.3C938.4,68.7,937.4,68.1,937.4,68.1z M870.6,40.4c0.4-2.7,1.2-5.4,2.2-7.9c1-2.6,2.3-5,4-7.2    c1.7-2.1,3.6-4.1,5.8-5.7l0.1,0.1c-2,1.8-3.8,3.8-5.2,6.1c-1.5,2.2-2.6,4.6-3.4,7.1c-0.8,2.5-1.2,5.2-1.8,7.8    c-0.6,2.6-1.1,5.2-1.7,7.9l-0.2,0C870.1,45.9,870.2,43.1,870.6,40.4z M884.1,45.8c-3.6,3.6-6.8,7.6-9.2,12.1    c-2.3,4.5-4,9.3-5.6,14.1c-1.6,4.8-2.9,9.8-4,14.8l-0.2,0c0.1-2.6,0.4-5.1,0.8-7.7c0.4-2.6,1-5.1,1.7-7.6c1.4-5,3.5-9.8,6.1-14.3    c2.6-4.5,6-8.5,9.8-12c3.8-3.5,7.9-6.6,12.4-9.2l0.1,0.2C891.7,38.9,887.7,42.2,884.1,45.8z M914.9,49.4c-3.3,0.8-6.5,1.9-9.4,3.5    c-2.9,1.6-5.4,3.9-7.9,6.1c-2.5,2.2-4.9,4.7-7.3,7.1l-0.1-0.1c0.8-1.5,1.8-3,2.8-4.3c1-1.4,2.2-2.7,3.4-3.9c2.4-2.5,5.4-4.5,8.5-6    c3.1-1.6,6.5-2.6,9.9-3.2c3.4-0.5,6.9-0.7,10.3-0.4l0,0.2C921.6,48.3,918.1,48.7,914.9,49.4z"></path>
	</g>
	<g>
		<path class="st2" d="M35.8,139.9c-6.7,0-12-1.4-15.9-4.2s-6.7-6.8-8.4-12c-1.7-5.2-2.5-11.2-2.5-18V72.7c0-7.1,0.9-13.2,2.6-18.3    c1.7-5.1,4.7-9.1,9-11.8c4.3-2.8,10.1-4.1,17.4-4.1c7.1,0,12.7,1.2,16.8,3.5c4.1,2.4,7.1,5.7,8.8,10c1.8,4.3,2.7,9.4,2.7,15.4v5.7    H46.6v-7c0-2.6-0.2-4.9-0.5-6.9c-0.3-2-1.1-3.6-2.3-4.7c-1.2-1.1-3.1-1.7-5.7-1.7c-2.7,0-4.6,0.7-5.9,2.1c-1.2,1.4-2,3.2-2.3,5.3    c-0.3,2.2-0.5,4.5-0.5,6.9v43.8c0,2.8,0.2,5.2,0.7,7.4s1.4,3.9,2.7,5.1c1.3,1.2,3.3,1.8,5.8,1.8c2.5,0,4.5-0.7,5.9-2    c1.4-1.3,2.3-3.1,2.9-5.3c0.5-2.2,0.8-4.8,0.8-7.6V99.9h-9.6V87.7h27.8v50.8H53.3l-1.2-8.9c-1.3,3-3.3,5.5-5.9,7.4    C43.7,139,40.2,139.9,35.8,139.9z"></path>
		<path class="st2" d="M107.9,139.8c-7.2,0-13-1.3-17.2-3.9c-4.2-2.6-7.3-6.3-9.1-11.2c-1.8-4.8-2.7-10.6-2.7-17.4V70.5    c0-6.8,0.9-12.5,2.7-17.3c1.8-4.8,4.9-8.5,9.1-11c4.2-2.5,10-3.8,17.2-3.8c7.3,0,13.1,1.3,17.4,3.8s7.3,6.2,9.2,11    c1.8,4.8,2.7,10.5,2.7,17.3v36.9c0,6.8-0.9,12.6-2.7,17.4c-1.8,4.8-4.9,8.6-9.2,11.2S115.2,139.8,107.9,139.8z M107.9,125.3    c2.6,0,4.5-0.6,5.7-1.8c1.2-1.2,2-2.8,2.4-4.8c0.4-2,0.6-4.1,0.6-6.4V65.6c0-2.3-0.2-4.4-0.6-6.3c-0.4-2-1.2-3.5-2.4-4.7    c-1.2-1.2-3.1-1.8-5.7-1.8c-2.4,0-4.3,0.6-5.5,1.8c-1.2,1.2-2,2.7-2.4,4.7c-0.4,2-0.6,4.1-0.6,6.3v46.7c0,2.3,0.2,4.4,0.5,6.4    c0.4,2,1.2,3.6,2.4,4.8C103.5,124.7,105.4,125.3,107.9,125.3z"></path>
		<path class="st2" d="M150.6,138.5V39.6h24.2c8.4,0,14.9,1.1,19.6,3.2c4.7,2.2,8,5.5,9.9,10.1c2,4.6,2.9,10.5,2.9,17.6v36    c0,7.3-1,13.3-2.9,18.1c-2,4.7-5.2,8.2-9.8,10.4c-4.6,2.2-11,3.4-19.2,3.4H150.6z M170.7,124.4h4.3c3.7,0,6.4-0.6,8-1.8    c1.6-1.2,2.6-2.9,3-5.2c0.4-2.3,0.6-5.2,0.6-8.6V68.1c0-3.4-0.3-6.2-0.8-8.2c-0.5-2.1-1.6-3.6-3.2-4.6c-1.6-1-4.2-1.5-7.7-1.5    h-4.1V124.4z"></path>
		<path class="st2" d="M248.1,139.8c-7.2,0-13-1.3-17.2-3.9c-4.2-2.6-7.3-6.3-9.1-11.2c-1.8-4.8-2.7-10.6-2.7-17.4V70.5    c0-6.8,0.9-12.5,2.7-17.3c1.8-4.8,4.9-8.5,9.1-11c4.2-2.5,10-3.8,17.2-3.8c7.3,0,13.1,1.3,17.4,3.8s7.3,6.2,9.2,11    c1.8,4.8,2.7,10.5,2.7,17.3v36.9c0,6.8-0.9,12.6-2.7,17.4c-1.8,4.8-4.9,8.6-9.2,11.2S255.4,139.8,248.1,139.8z M248.1,125.3    c2.6,0,4.5-0.6,5.7-1.8c1.2-1.2,2-2.8,2.4-4.8c0.4-2,0.6-4.1,0.6-6.4V65.6c0-2.3-0.2-4.4-0.6-6.3c-0.4-2-1.2-3.5-2.4-4.7    c-1.2-1.2-3.1-1.8-5.7-1.8c-2.4,0-4.3,0.6-5.5,1.8c-1.2,1.2-2,2.7-2.4,4.7c-0.4,2-0.6,4.1-0.6,6.3v46.7c0,2.3,0.2,4.4,0.5,6.4    c0.4,2,1.2,3.6,2.4,4.8C243.7,124.7,245.6,125.3,248.1,125.3z"></path>
		<path class="st2" d="M299.4,138.5V54.6h-15.3v-15h50.5v15h-15v83.8H299.4z"></path>
		<path class="st2" d="M382.9,138.5l-12.8-98.8h17.1l6.8,60.4l8.7-60.3h13.5l9,60.2l6.8-60.3H449l-12.7,98.8h-17.1l-9.6-62.6    l-9.2,62.6H382.9z"></path>
		<path class="st2" d="M459.8,138.5V39.6h20v98.8H459.8z"></path>
		<path class="st2" d="M495,138.5V39.6h20.1v85.2h23.2v13.7H495z"></path>
		<path class="st2" d="M547.1,138.5V39.6h24.2c8.4,0,14.9,1.1,19.6,3.2c4.7,2.2,8,5.5,9.9,10.1c2,4.6,2.9,10.5,2.9,17.6v36    c0,7.3-1,13.3-2.9,18.1c-2,4.7-5.2,8.2-9.8,10.4c-4.6,2.2-11,3.4-19.2,3.4H547.1z M567.2,124.4h4.3c3.7,0,6.4-0.6,8-1.8    c1.6-1.2,2.6-2.9,3-5.2c0.4-2.3,0.6-5.2,0.6-8.6V68.1c0-3.4-0.3-6.2-0.8-8.2c-0.5-2.1-1.6-3.6-3.2-4.6c-1.6-1-4.2-1.5-7.7-1.5    h-4.1V124.4z"></path>
		<path class="st2" d="M641.5,141v-14.2c2.4,0,4.4-0.1,6-0.4c1.6-0.3,2.9-0.8,3.8-1.6c0.9-0.8,1.5-1.9,2-3.4    c0.4-1.5,0.6-3.4,0.6-5.7V39.6H674v77c0,5.5-0.7,10-2,13.6c-1.3,3.6-3.6,6.3-6.9,8.1c-3.3,1.8-7.9,2.7-13.9,2.7H641.5z"></path>
		<path class="st2" d="M684,138.5l19.2-98.8h22.3l19,98.8h-18.7l-3.5-21.7h-15.6l-3.8,21.7H684z M708.5,104.4h11.8l-6-39.9    L708.5,104.4z"></path>
		<path class="st2" d="M754.2,138.5l1.7-98.8h21.4l12.2,62.4l13.1-62.4h20.6l1.7,98.8h-14.6l-1.6-67l-12.6,67h-12.6L770.3,71    l-1.3,67.5H754.2z"></path>
	</g>
</g>
</svg>